<?xml version="1.0" encoding="utf-8"?>
<!-- Generator: Adobe Illustrator 28.0.0, SVG Export Plug-In . SVG Version: 6.00 Build 0)  -->
<svg version="1.1" id="Capa_1" xmlns="http://www.w3.org/2000/svg" xmlns:xlink="http://www.w3.org/1999/xlink" x="0px" y="0px"
	 viewBox="0 0 512 512" style="enable-background:new 0 0 512 512;" xml:space="preserve">
<style type="text/css">
	.st0{fill:#5A43EF;}
</style>
<path class="st0" d="M434.7,167.7l-90.2-90.3c-12.4-12.4-32.6-12.5-45-0.1l-0.1,0.1L224,152.9V424l210.7-211.1
	C447.1,200.4,447.1,180.2,434.7,167.7L434.7,167.7z M480,320H373.1L186.7,506.5c-2.1,2.1-4.5,3.6-6.7,5.5h300c17.7,0,32-14.3,32-32
	V352C512,334.3,497.7,320,480,320z M192,32c0-17.7-14.3-32-32-32H32C14.3,0,0,14.3,0,32v384c0,53,43,96,96,96s96-43,96-96V32z
	 M96,440c-13.3,0-24-10.7-24-24s10.7-24,24-24s24,10.7,24,24S109.3,440,96,440z M128,256H64v-64h64V256z M128,128H64V64h64V128z"/>
</svg>
